<mxfile host="app.diagrams.net" agent="Mozilla/5.0 (Windows NT 10.0; Win64; x64) AppleWebKit/537.36 (KHTML, like Gecko) Chrome/129.0.0.0 Safari/537.36" version="24.7.16">
  <diagram name="Page-1" id="cwmCK0KiUJ9swzIZ63WT">
    <mxGraphModel dx="1050" dy="563" grid="1" gridSize="10" guides="1" tooltips="1" connect="1" arrows="1" fold="1" page="1" pageScale="1" pageWidth="1100" pageHeight="850" math="0" shadow="0">
      <root>
        <mxCell id="0" />
        <mxCell id="1" parent="0" />
        <mxCell id="3Pe4ISWxf8vOQFIgEnku-33" value="" style="edgeStyle=orthogonalEdgeStyle;rounded=0;orthogonalLoop=1;jettySize=auto;html=1;" edge="1" parent="1" source="2" target="3Pe4ISWxf8vOQFIgEnku-20">
          <mxGeometry relative="1" as="geometry" />
        </mxCell>
        <mxCell id="2" value="User" style="whiteSpace=wrap;strokeWidth=2;" parent="1" vertex="1">
          <mxGeometry x="8" y="8" width="93" height="48" as="geometry" />
        </mxCell>
        <mxCell id="3Pe4ISWxf8vOQFIgEnku-23" value="" style="edgeStyle=orthogonalEdgeStyle;rounded=0;orthogonalLoop=1;jettySize=auto;html=1;" edge="1" parent="1" source="3">
          <mxGeometry relative="1" as="geometry">
            <mxPoint x="204" y="340" as="targetPoint" />
          </mxGeometry>
        </mxCell>
        <mxCell id="3" value="Homepage" style="rounded=1;arcSize=40;strokeWidth=2" parent="1" vertex="1">
          <mxGeometry x="151" y="8" width="105" height="48" as="geometry" />
        </mxCell>
        <mxCell id="4" value="Category View" style="rounded=1;arcSize=40;strokeWidth=2" parent="1" vertex="1">
          <mxGeometry x="306" y="8" width="134" height="48" as="geometry" />
        </mxCell>
        <mxCell id="5" value="Product View" style="rounded=1;arcSize=40;strokeWidth=2" parent="1" vertex="1">
          <mxGeometry x="490" y="8" width="125" height="48" as="geometry" />
        </mxCell>
        <mxCell id="6" value="Add to Cart" style="rounded=1;arcSize=40;strokeWidth=2" parent="1" vertex="1">
          <mxGeometry x="665" y="8" width="113" height="48" as="geometry" />
        </mxCell>
        <mxCell id="7" value="Cart" style="rounded=1;arcSize=40;strokeWidth=2" parent="1" vertex="1">
          <mxGeometry x="828" y="8" width="61" height="48" as="geometry" />
        </mxCell>
        <mxCell id="8" value="Checkout" style="rounded=1;arcSize=40;strokeWidth=2" parent="1" vertex="1">
          <mxGeometry x="939" y="8" width="97" height="48" as="geometry" />
        </mxCell>
        <mxCell id="9" value="Payment" style="rounded=1;arcSize=40;strokeWidth=2" parent="1" vertex="1">
          <mxGeometry x="1085" y="8" width="92" height="48" as="geometry" />
        </mxCell>
        <mxCell id="10" value="Confirmation" style="rounded=1;arcSize=40;strokeWidth=2" parent="1" vertex="1">
          <mxGeometry x="1227" y="8" width="124" height="48" as="geometry" />
        </mxCell>
        <mxCell id="11" value="Thank You Page" style="rounded=1;arcSize=40;strokeWidth=2" parent="1" vertex="1">
          <mxGeometry x="1400" y="8" width="141" height="48" as="geometry" />
        </mxCell>
        <mxCell id="12" value="" style="curved=1;startArrow=none;endArrow=block;exitX=1;exitY=0.5;entryX=0;entryY=0.5;" parent="1" source="2" target="3" edge="1">
          <mxGeometry relative="1" as="geometry">
            <Array as="points" />
          </mxGeometry>
        </mxCell>
        <mxCell id="13" value="" style="curved=1;startArrow=none;endArrow=block;exitX=1;exitY=0.5;entryX=0;entryY=0.5;" parent="1" source="3" target="4" edge="1">
          <mxGeometry relative="1" as="geometry">
            <Array as="points" />
          </mxGeometry>
        </mxCell>
        <mxCell id="14" value="" style="curved=1;startArrow=none;endArrow=block;exitX=1;exitY=0.5;entryX=0;entryY=0.5;" parent="1" source="4" target="5" edge="1">
          <mxGeometry relative="1" as="geometry">
            <Array as="points" />
          </mxGeometry>
        </mxCell>
        <mxCell id="15" value="" style="curved=1;startArrow=none;endArrow=block;exitX=1;exitY=0.5;entryX=0;entryY=0.5;" parent="1" source="5" target="6" edge="1">
          <mxGeometry relative="1" as="geometry">
            <Array as="points" />
          </mxGeometry>
        </mxCell>
        <mxCell id="16" value="" style="curved=1;startArrow=none;endArrow=block;exitX=1;exitY=0.5;entryX=0;entryY=0.5;" parent="1" source="6" target="7" edge="1">
          <mxGeometry relative="1" as="geometry">
            <Array as="points" />
          </mxGeometry>
        </mxCell>
        <mxCell id="17" value="" style="curved=1;startArrow=none;endArrow=block;exitX=0.99;exitY=0.5;entryX=0;entryY=0.5;" parent="1" source="7" target="8" edge="1">
          <mxGeometry relative="1" as="geometry">
            <Array as="points" />
          </mxGeometry>
        </mxCell>
        <mxCell id="18" value="" style="curved=1;startArrow=none;endArrow=block;exitX=0.99;exitY=0.5;entryX=0;entryY=0.5;" parent="1" source="8" target="9" edge="1">
          <mxGeometry relative="1" as="geometry">
            <Array as="points" />
          </mxGeometry>
        </mxCell>
        <mxCell id="19" value="" style="curved=1;startArrow=none;endArrow=block;exitX=1;exitY=0.5;entryX=0;entryY=0.5;" parent="1" source="9" target="10" edge="1">
          <mxGeometry relative="1" as="geometry">
            <Array as="points" />
          </mxGeometry>
        </mxCell>
        <mxCell id="20" value="" style="curved=1;startArrow=none;endArrow=block;exitX=1;exitY=0.5;entryX=0;entryY=0.5;" parent="1" source="10" target="11" edge="1">
          <mxGeometry relative="1" as="geometry">
            <Array as="points" />
          </mxGeometry>
        </mxCell>
        <mxCell id="3Pe4ISWxf8vOQFIgEnku-35" value="" style="edgeStyle=orthogonalEdgeStyle;rounded=0;orthogonalLoop=1;jettySize=auto;html=1;" edge="1" parent="1" source="3Pe4ISWxf8vOQFIgEnku-20" target="3Pe4ISWxf8vOQFIgEnku-34">
          <mxGeometry relative="1" as="geometry" />
        </mxCell>
        <mxCell id="3Pe4ISWxf8vOQFIgEnku-36" value="" style="edgeStyle=orthogonalEdgeStyle;rounded=0;orthogonalLoop=1;jettySize=auto;html=1;" edge="1" parent="1" source="3Pe4ISWxf8vOQFIgEnku-20" target="3Pe4ISWxf8vOQFIgEnku-34">
          <mxGeometry relative="1" as="geometry" />
        </mxCell>
        <mxCell id="3Pe4ISWxf8vOQFIgEnku-38" value="" style="edgeStyle=orthogonalEdgeStyle;rounded=0;orthogonalLoop=1;jettySize=auto;html=1;" edge="1" parent="1" source="3Pe4ISWxf8vOQFIgEnku-20" target="3Pe4ISWxf8vOQFIgEnku-37">
          <mxGeometry relative="1" as="geometry" />
        </mxCell>
        <mxCell id="3Pe4ISWxf8vOQFIgEnku-20" value="signup/login" style="rounded=0;whiteSpace=wrap;html=1;" vertex="1" parent="1">
          <mxGeometry x="50" y="150" width="120" height="60" as="geometry" />
        </mxCell>
        <mxCell id="3Pe4ISWxf8vOQFIgEnku-39" value="" style="edgeStyle=orthogonalEdgeStyle;rounded=0;orthogonalLoop=1;jettySize=auto;html=1;" edge="1" parent="1" source="3Pe4ISWxf8vOQFIgEnku-34" target="4">
          <mxGeometry relative="1" as="geometry">
            <Array as="points">
              <mxPoint x="280" y="32" />
            </Array>
          </mxGeometry>
        </mxCell>
        <mxCell id="3Pe4ISWxf8vOQFIgEnku-34" value="client" style="whiteSpace=wrap;html=1;rounded=0;" vertex="1" parent="1">
          <mxGeometry x="230" y="150" width="120" height="60" as="geometry" />
        </mxCell>
        <mxCell id="3Pe4ISWxf8vOQFIgEnku-41" value="" style="edgeStyle=orthogonalEdgeStyle;rounded=0;orthogonalLoop=1;jettySize=auto;html=1;" edge="1" parent="1" source="3Pe4ISWxf8vOQFIgEnku-37" target="3Pe4ISWxf8vOQFIgEnku-40">
          <mxGeometry relative="1" as="geometry" />
        </mxCell>
        <mxCell id="3Pe4ISWxf8vOQFIgEnku-37" value="seller" style="whiteSpace=wrap;html=1;rounded=0;" vertex="1" parent="1">
          <mxGeometry x="50" y="310" width="120" height="60" as="geometry" />
        </mxCell>
        <mxCell id="3Pe4ISWxf8vOQFIgEnku-43" value="" style="edgeStyle=orthogonalEdgeStyle;rounded=0;orthogonalLoop=1;jettySize=auto;html=1;" edge="1" parent="1" source="3Pe4ISWxf8vOQFIgEnku-40" target="3Pe4ISWxf8vOQFIgEnku-42">
          <mxGeometry relative="1" as="geometry" />
        </mxCell>
        <mxCell id="3Pe4ISWxf8vOQFIgEnku-40" value="dashboard" style="whiteSpace=wrap;html=1;rounded=0;" vertex="1" parent="1">
          <mxGeometry x="250" y="310" width="120" height="60" as="geometry" />
        </mxCell>
        <mxCell id="3Pe4ISWxf8vOQFIgEnku-45" value="" style="edgeStyle=orthogonalEdgeStyle;rounded=0;orthogonalLoop=1;jettySize=auto;html=1;" edge="1" parent="1" source="3Pe4ISWxf8vOQFIgEnku-42" target="3Pe4ISWxf8vOQFIgEnku-44">
          <mxGeometry relative="1" as="geometry" />
        </mxCell>
        <mxCell id="3Pe4ISWxf8vOQFIgEnku-42" value="veiw orders" style="whiteSpace=wrap;html=1;rounded=0;" vertex="1" parent="1">
          <mxGeometry x="450" y="310" width="120" height="60" as="geometry" />
        </mxCell>
        <mxCell id="3Pe4ISWxf8vOQFIgEnku-47" value="" style="edgeStyle=orthogonalEdgeStyle;rounded=0;orthogonalLoop=1;jettySize=auto;html=1;" edge="1" parent="1" source="3Pe4ISWxf8vOQFIgEnku-44" target="3Pe4ISWxf8vOQFIgEnku-46">
          <mxGeometry relative="1" as="geometry" />
        </mxCell>
        <mxCell id="3Pe4ISWxf8vOQFIgEnku-44" value="confirmation" style="whiteSpace=wrap;html=1;rounded=0;" vertex="1" parent="1">
          <mxGeometry x="650" y="310" width="120" height="60" as="geometry" />
        </mxCell>
        <mxCell id="3Pe4ISWxf8vOQFIgEnku-46" value="shipping" style="whiteSpace=wrap;html=1;rounded=0;" vertex="1" parent="1">
          <mxGeometry x="850" y="310" width="120" height="60" as="geometry" />
        </mxCell>
      </root>
    </mxGraphModel>
  </diagram>
</mxfile>
